PathFileType	4	(X/Y/Z)	 3.0Hz3min.trc
DataRate	CameraRate	NumFrames	NumMarkers	Units	OrigDataRate	OrigDataStartFrame	OrigNumFrames
200	200	11	35	m	200	626	1000
Frame#	Time	C7			LSH			RSH			MAN			RASI			LASI			HIPR			HIPL			RPSI			LPSI			COX			RTHI1			RTHI2			RTHI3			RTHI4			RSHA1			RSHA2			RSHA3			RSHA4			RHEEL			RMET5			RMET1			RTOE			LTHI1			LTHI2			LTHI3			LTHI4			LSHA1			LSHA2			LSHA3			LSHA4			LHEEL			LMET5			LMET1			LTOE			
		X1	Y1	Z1	X2	Y2	Z2	X3	Y3	Z3	X4	Y4	Z4	X5	Y5	Z5	X6	Y6	Z6	X7	Y7	Z7	X8	Y8	Z8	X9	Y9	Z9	X10	Y10	Z10	X11	Y11	Z11	X12	Y12	Z12	X13	Y13	Z13	X14	Y14	Z14	X15	Y15	Z15	X16	Y16	Z16	X17	Y17	Z17	X18	Y18	Z18	X19	Y19	Z19	X20	Y20	Z20	X21	Y21	Z21	X22	Y22	Z22	X23	Y23	Z23	X24	Y24	Z24	X25	Y25	Z25	X26	Y26	Z26	X27	Y27	Z27	X28	Y28	Z28	X29	Y29	Z29	X30	Y30	Z30	X31	Y31	Z31	X32	Y32	Z32	X33	Y33	Z33	X34	Y34	Z34	X35	Y35	Z35	
626	3.1300	-0.299770	1.417126	-0.577338	-0.206650	1.411946	-0.740811	-0.254174	1.388581	-0.398335	-0.176461	1.374285	-0.564435	-0.161839	0.975680	-0.457746	-0.140948	0.974012	-0.673257	-0.234235	1.017407	-0.429458	-0.190087	1.028692	-0.709299	-0.319887	1.005139	-0.528751	-0.307518	1.005504	-0.632171	-0.315221	1.012099	-0.583972	-0.274139	0.775495	-0.407292	-0.255144	0.718813	-0.402676	-0.194527	0.735807	-0.388391	-0.205542	0.796447	-0.390339	-0.289092	0.370677	-0.387367	-0.302304	0.330041	-0.393311	-0.242781	0.317558	-0.391082	-0.233685	0.357063	-0.389990	-0.385026	0.109416	-0.445951	-0.256107	0.030982	-0.382969	-0.211977	0.038046	-0.454242	-0.189208	0.030010	-0.453856	-0.222869	0.751811	-0.754555	-0.193015	0.698053	-0.752566	-0.134528	0.724219	-0.740981	-0.157147	0.779580	-0.742288	-0.282642	0.353241	-0.772828	-0.301760	0.317504	-0.772773	-0.243517	0.293930	-0.768571	-0.231320	0.336356	-0.769622	-0.396621	0.114163	-0.741938	-0.260750	0.037279	-0.781805	-0.230358	0.042114	-0.712695	-0.208352	0.032211	-0.713201	
627	3.1350	-0.299624	1.413413	-0.577338	-0.206446	1.407996	-0.740976	-0.253703	1.384539	-0.398161	-0.176187	1.370259	-0.564550	-0.161708	0.971882	-0.457705	-0.141159	0.970151	-0.673449	-0.234332	1.013296	-0.429378	-0.190534	1.024465	-0.709412	-0.320065	1.000674	-0.528590	-0.307936	1.000846	-0.631984	-0.315460	1.007563	-0.583697	-0.273532	0.771684	-0.407071	-0.254506	0.715005	-0.402484	-0.193882	0.732032	-0.388309	-0.204917	0.792657	-0.390243	-0.289001	0.367022	-0.387403	-0.302381	0.326389	-0.393444	-0.242896	0.313730	-0.391459	-0.233655	0.353217	-0.390254	-0.386526	0.106145	-0.446508	-0.256978	0.029025	-0.381751	-0.212065	0.037235	-0.454264	-0.188892	0.029236	-0.454497	-0.222191	0.747927	-0.754879	-0.192142	0.694274	-0.752951	-0.133789	0.720632	-0.741105	-0.156609	0.775913	-0.742329	-0.282339	0.349849	-0.772595	-0.301603	0.314205	-0.772484	-0.243443	0.290394	-0.768358	-0.231077	0.332788	-0.769467	-0.397805	0.111280	-0.741375	-0.261567	0.034879	-0.782312	-0.231026	0.040204	-0.711829	-0.208951	0.030553	-0.711914	
628	3.1400	-0.299513	1.409480	-0.577345	-0.206279	1.403948	-0.741119	-0.253190	1.380383	-0.398065	-0.175903	1.366039	-0.564672	-0.161544	0.967858	-0.457690	-0.141329	0.966094	-0.673654	-0.234348	1.008961	-0.429240	-0.190937	1.020016	-0.709565	-0.320264	0.996053	-0.528422	-0.308362	0.996047	-0.631810	-0.315696	1.002892	-0.583443	-0.273025	0.767571	-0.406809	-0.253942	0.710911	-0.402230	-0.193340	0.727993	-0.388079	-0.204422	0.788605	-0.390018	-0.289152	0.363231	-0.387481	-0.302706	0.322601	-0.393622	-0.243269	0.309761	-0.391751	-0.233863	0.349211	-0.390428	-0.388205	0.102773	-0.446947	-0.257788	0.027476	-0.380393	-0.212204	0.036820	-0.453871	-0.188611	0.028839	-0.454640	-0.221515	0.743776	-0.755299	-0.191272	0.690223	-0.753458	-0.133056	0.716758	-0.741360	-0.156069	0.771963	-0.742472	-0.282215	0.346257	-0.772364	-0.301612	0.310706	-0.772192	-0.243530	0.286675	-0.768168	-0.231005	0.329030	-0.769341	-0.399251	0.108236	-0.740808	-0.262264	0.033047	-0.783245	-0.231454	0.038869	-0.711412	-0.209261	0.029431	-0.711059	
629	3.1450	-0.299450	1.405342	-0.577365	-0.206145	1.399827	-0.741257	-0.252644	1.376159	-0.398036	-0.175604	1.361653	-0.564795	-0.161359	0.963635	-0.457714	-0.141461	0.961879	-0.673879	-0.234282	1.004424	-0.429038	-0.191291	1.015370	-0.709774	-0.320503	0.991306	-0.528243	-0.308807	0.991140	-0.631653	-0.315944	0.998108	-0.583215	-0.272636	0.763177	-0.406515	-0.253466	0.706546	-0.401919	-0.192910	0.723717	-0.387722	-0.204073	0.784310	-0.389680	-0.289580	0.359391	-0.387595	-0.303303	0.318782	-0.393849	-0.243921	0.305734	-0.391922	-0.234346	0.345138	-0.390477	-0.390004	0.099379	-0.447204	-0.258608	0.026249	-0.379152	-0.212438	0.036658	-0.453317	-0.188453	0.028673	-0.454520	-0.220869	0.739364	-0.755799	-0.190447	0.685903	-0.754057	-0.132357	0.712596	-0.741725	-0.155549	0.767725	-0.742724	-0.282316	0.342537	-0.772133	-0.301857	0.307084	-0.771884	-0.243866	0.282824	-0.768003	-0.231168	0.325126	-0.769250	-0.400947	0.105156	-0.740285	-0.262967	0.031688	-0.784349	-0.231779	0.038048	-0.711418	-0.209415	0.028759	-0.710643	
630	3.1500	-0.299434	1.401034	-0.577402	-0.206035	1.395620	-0.741420	-0.252085	1.371883	-0.398053	-0.175274	1.357130	-0.564921	-0.161160	0.959254	-0.457773	-0.141559	0.957539	-0.674132	-0.234137	0.999721	-0.428777	-0.191602	1.010545	-0.710048	-0.320798	0.986464	-0.528056	-0.309282	0.986155	-0.631517	-0.316220	0.993258	-0.583021	-0.272379	0.758527	-0.406180	-0.253083	0.701928	-0.401557	-0.192593	0.719247	-0.387275	-0.203887	0.779808	-0.389249	-0.290281	0.355581	-0.387709	-0.304161	0.315012	-0.394079	-0.244832	0.301742	-0.391938	-0.235095	0.341100	-0.390381	-0.391830	0.095986	-0.447266	-0.259385	0.025277	-0.378147	-0.212788	0.036590	-0.452704	-0.188448	0.028574	-0.454200	-0.220277	0.734705	-0.756352	-0.189697	0.681324	-0.754692	-0.131715	0.708156	-0.742186	-0.155069	0.763216	-0.743084	-0.282674	0.338795	-0.771894	-0.302387	0.303441	-0.771553	-0.244506	0.278913	-0.767884	-0.231605	0.321145	-0.769208	-0.402836	0.102145	-0.739816	-0.263826	0.030678	-0.785428	-0.232144	0.037621	-0.711657	-0.209546	0.028401	-0.710526	
631	3.1550	-0.299471	1.396610	-0.577462	-0.205976	1.391365	-0.741633	-0.251537	1.367566	-0.398095	-0.174832	1.352504	-0.565069	-0.160955	0.954756	-0.457863	-0.141630	0.953115	-0.674421	-0.233962	0.994907	-0.428457	-0.191876	1.005570	-0.710395	-0.321160	0.981564	-0.527858	-0.309784	0.981122	-0.631409	-0.316541	0.988372	-0.582838	-0.272278	0.753687	-0.405793	-0.252796	0.697153	-0.401151	-0.192395	0.714681	-0.386758	-0.203883	0.775194	-0.388749	-0.291213	0.351842	-0.387798	-0.305221	0.311358	-0.394285	-0.245951	0.297876	-0.391796	-0.236061	0.337181	-0.390141	-0.393577	0.092588	-0.447212	-0.260078	0.024461	-0.377425	-0.213215	0.036531	-0.452208	-0.188554	0.028503	-0.453865	-0.219761	0.729823	-0.756924	-0.189045	0.676511	-0.755321	-0.131147	0.703472	-0.742721	-0.154636	0.758468	-0.743555	-0.283287	0.335139	-0.771633	-0.303208	0.299899	-0.771189	-0.245465	0.275041	-0.767851	-0.232321	0.317198	-0.769241	-0.404823	0.099220	-0.739421	-0.264820	0.029929	-0.786357	-0.232572	0.037469	-0.712054	-0.209688	0.028227	-0.710657	
632	3.1600	-0.299557	1.392141	-0.577549	-0.205980	1.387088	-0.741908	-0.251013	1.363229	-0.398135	-0.174285	1.347815	-0.565231	-0.160755	0.950194	-0.457973	-0.141677	0.948667	-0.674752	-0.233760	0.989998	-0.428096	-0.192124	1.000471	-0.710808	-0.321587	0.976636	-0.527653	-0.310310	0.976083	-0.631334	-0.316905	0.983500	-0.582674	-0.272350	0.748794	-0.405364	-0.252617	0.692360	-0.400719	-0.192319	0.710148	-0.386216	-0.204074	0.770609	-0.388212	-0.292293	0.348228	-0.387845	-0.306384	0.307874	-0.394456	-0.247169	0.294196	-0.391556	-0.237158	0.333451	-0.389788	-0.395189	0.089207	-0.447198	-0.260697	0.023748	-0.376895	-0.213654	0.036472	-0.451866	-0.188701	0.028446	-0.453622	-0.219343	0.724761	-0.757476	-0.188493	0.671522	-0.755903	-0.130662	0.698617	-0.743314	-0.154285	0.753552	-0.744128	-0.284127	0.331675	-0.771369	-0.304276	0.296563	-0.770815	-0.246687	0.271332	-0.767929	-0.233277	0.313398	-0.769370	-0.406812	0.096322	-0.739090	-0.265832	0.029322	-0.787058	-0.233034	0.037426	-0.712510	-0.209853	0.028108	-0.710915	
633	3.1650	-0.299685	1.387721	-0.577661	-0.206052	1.382821	-0.742265	-0.250536	1.358896	-0.398138	-0.173641	1.343119	-0.565403	-0.160564	0.945643	-0.458084	-0.141707	0.944253	-0.675128	-0.233594	0.985061	-0.427697	-0.192357	0.995297	-0.711278	-0.322059	0.971747	-0.527460	-0.310850	0.971087	-0.631277	-0.317294	0.978697	-0.582528	-0.272600	0.744066	-0.404933	-0.252592	0.687736	-0.400292	-0.192402	0.705815	-0.385677	-0.204452	0.766213	-0.387666	-0.293401	0.344746	-0.387830	-0.307539	0.304565	-0.394565	-0.248361	0.290718	-0.391295	-0.238271	0.329928	-0.389402	-0.396676	0.085887	-0.447299	-0.261196	0.023163	-0.376467	-0.214040	0.036419	-0.451617	-0.188819	0.028397	-0.453425	-0.219054	0.719643	-0.757981	-0.188052	0.666493	-0.756419	-0.130280	0.693765	-0.743938	-0.154058	0.748628	-0.744767	-0.285123	0.328442	-0.771120	-0.305498	0.293448	-0.770431	-0.248062	0.267858	-0.768096	-0.234390	0.309843	-0.769590	-0.408714	0.093397	-0.738741	-0.266782	0.028768	-0.787554	-0.233511	0.037408	-0.712871	-0.210031	0.028023	-0.711140	
634	3.1700	-0.299840	1.383454	-0.577792	-0.206202	1.378602	-0.742720	-0.250121	1.354584	-0.398080	-0.172918	1.338490	-0.565581	-0.160383	0.941183	-0.458141	-0.141726	0.939941	-0.675543	-0.233497	0.980142	-0.427293	-0.192592	0.990093	-0.711788	-0.322538	0.966962	-0.527310	-0.311385	0.966206	-0.631231	-0.317667	0.974060	-0.582401	-0.273026	0.739695	-0.404546	-0.252751	0.683470	-0.399918	-0.192675	0.701837	-0.385161	-0.205019	0.762175	-0.387137	-0.294426	0.341392	-0.387735	-0.308581	0.301365	-0.394598	-0.249425	0.287446	-0.391090	-0.239289	0.326614	-0.389062	-0.398049	0.082674	-0.447558	-0.261549	0.022707	-0.376076	-0.214371	0.036380	-0.451402	-0.188897	0.028359	-0.453217	-0.218927	0.714690	-0.758420	-0.187755	0.661636	-0.756866	-0.130034	0.689111	-0.744581	-0.153984	0.743899	-0.745431	-0.286187	0.325427	-0.770889	-0.306742	0.290534	-0.770063	-0.249437	0.264650	-0.768311	-0.235550	0.306574	-0.769853	-0.410476	0.090458	-0.738347	-0.267606	0.028275	-0.787928	-0.233941	0.037394	-0.713124	-0.210175	0.027961	-0.711301	
635	3.1750	-0.300004	1.379446	-0.577934	-0.206438	1.374493	-0.743272	-0.249762	1.350333	-0.397946	-0.172157	1.334006	-0.565760	-0.160215	0.936902	-0.458116	-0.141737	0.935816	-0.675981	-0.233552	0.975334	-0.426886	-0.192844	0.984933	-0.712317	-0.322978	0.962375	-0.527230	-0.311880	0.961528	-0.631188	-0.317981	0.969680	-0.582301	-0.273628	0.735879	-0.404271	-0.253127	0.679744	-0.399649	-0.193159	0.698355	-0.384696	-0.205747	0.758645	-0.386665	-0.295282	0.338176	-0.387618	-0.309444	0.298313	-0.394597	-0.250293	0.284372	-0.391020	-0.240131	0.323497	-0.388835	-0.399298	0.079641	-0.448025	-0.261803	0.022356	-0.375732	-0.214652	0.036364	-0.451242	-0.188951	0.028327	-0.453029	-0.218993	0.710126	-0.758772	-0.187645	0.657176	-0.757249	-0.129965	0.684863	-0.745227	-0.154096	0.739575	-0.746083	-0.287219	0.322600	-0.770701	-0.307894	0.287788	-0.769752	-0.250676	0.261695	-0.768508	-0.236647	0.303581	-0.770095	-0.412072	0.087545	-0.737927	-0.268249	0.027871	-0.788238	-0.234283	0.037386	-0.713333	-0.210258	0.027925	-0.711444	
636	3.1800	-0.300150	1.375802	-0.578073	-0.206739	1.370542	-0.743905	-0.249448	1.346197	-0.397729	-0.171371	1.329769	-0.565946	-0.160074	0.932908	-0.457981	-0.141737	0.931962	-0.676427	-0.233781	0.970716	-0.426517	-0.193130	0.979911	-0.712848	-0.323346	0.958089	-0.527245	-0.312306	0.957167	-0.631144	-0.318201	0.965672	-0.582245	-0.274349	0.732741	-0.404196	-0.253736	0.676654	-0.399563	-0.193861	0.695406	-0.384316	-0.206585	0.755686	-0.386274	-0.295914	0.335187	-0.387486	-0.310092	0.295478	-0.394602	-0.250934	0.281504	-0.391143	-0.240754	0.320597	-0.388780	-0.400423	0.076857	-0.448680	-0.262006	0.022093	-0.375468	-0.214897	0.036352	-0.451134	-0.188990	0.028303	-0.452860	-0.219280	0.706168	-0.759020	-0.187762	0.653316	-0.757567	-0.130109	0.681203	-0.745856	-0.154420	0.735843	-0.746679	-0.288147	0.319916	-0.770590	-0.308876	0.285152	-0.769541	-0.251694	0.258949	-0.768605	-0.237598	0.300816	-0.770248	-0.413495	0.084735	-0.737466	-0.268731	0.027546	-0.788498	-0.234556	0.037370	-0.713497	-0.210301	0.027903	-0.711564	
